<?xml version="1.0" standalone="no"?>
<!DOCTYPE svg PUBLIC "-//W3C//DTD SVG 20010904//EN"
 "http://www.w3.org/TR/2001/REC-SVG-20010904/DTD/svg10.dtd">
<svg version="1.0" xmlns="http://www.w3.org/2000/svg"
 width="500.000000pt" height="500.000000pt" viewBox="0 0 500.000000 500.000000"
 preserveAspectRatio="xMidYMid meet">
<metadata>
Created by potrace 1.14, written by Peter Selinger 2001-2017
</metadata>
<g transform="translate(0.000000,500.000000) scale(0.100000,-0.100000)"
fill="#000000" stroke="none">
<path d="M1032 3973 c-39 -4 -43 -7 -39 -26 3 -12 103 -449 222 -972 120 -522
218 -951 219 -951 0 -1 42 5 91 13 63 10 141 13 260 9 181 -5 301 -22 424 -61
75 -24 101 -26 63 -6 -11 6 -60 27 -108 46 -165 67 -329 98 -523 99 l-124 1
-207 865 c-184 768 -205 866 -190 872 83 32 411 34 566 4 178 -35 397 -123
550 -221 76 -49 49 -17 -44 52 -172 128 -391 215 -652 259 -85 15 -426 26
-508 17z"/>
<path d="M3600 3974 c-169 -15 -381 -65 -513 -120 -146 -62 -290 -149 -353
-215 -25 -26 -17 -23 56 22 235 146 525 229 800 229 98 0 295 -21 304 -32 2
-1 -90 -392 -204 -868 l-207 -865 -129 -1 c-223 -1 -454 -55 -623 -144 -49
-26 -31 -25 60 5 123 39 243 56 424 61 119 4 197 1 260 -9 50 -8 91 -14 91
-13 6 5 443 1940 439 1944 -6 6 -343 11 -405 6z"/>
<path d="M887 3750 c-43 -4 -80 -9 -82 -11 -3 -3 447 -1879 460 -1915 2 -8 38
0 105 23 238 79 540 101 790 58 14 -3 5 2 -20 10 -150 51 -448 64 -673 31 -65
-10 -120 -16 -122 -14 -9 9 -425 1693 -421 1703 2 7 30 16 61 20 l57 7 -6 40
c-11 65 0 62 -149 48z"/>
<path d="M3976 3752 c-3 -5 -8 -27 -12 -50 l-6 -40 57 -7 c31 -4 59 -13 61
-20 4 -10 -412 -1694 -421 -1703 -2 -2 -55 3 -117 12 -173 23 -302 28 -427 16
-115 -11 -277 -42 -289 -55 -4 -5 4 -5 18 -2 203 48 556 22 791 -58 69 -23
101 -30 104 -22 2 7 106 433 230 947 124 514 228 943 231 952 4 13 -4 18 -38
22 -109 14 -176 17 -182 8z"/>
<path d="M741 3519 c-47 -5 -87 -12 -90 -15 -5 -5 467 -1913 475 -1923 2 -2
46 14 97 37 285 126 561 195 837 209 196 11 79 25 -150 19 -146 -4 -210 -10
-305 -30 -121 -26 -258 -66 -350 -104 l-50 -20 -220 851 c-121 468 -219 853
-218 856 1 3 21 10 45 14 24 5 45 11 47 12 6 6 -20 105 -27 104 -4 -1 -45 -6
-91 -10z"/>
<path d="M4150 3479 c-7 -28 -11 -52 -9 -54 2 -1 24 -7 49 -12 25 -5 44 -14
44 -19 -2 -15 -437 -1699 -440 -1702 -1 -2 -15 3 -31 11 -54 28 -249 88 -368
113 -94 20 -160 26 -305 30 -229 6 -346 -8 -150 -19 255 -13 516 -76 785 -188
81 -34 148 -59 149 -57 5 6 476 1898 476 1912 0 10 -19 16 -67 21 -38 3 -80 8
-95 10 -24 4 -27 0 -38 -46z"/>
<path d="M553 3341 c-24 -4 -45 -10 -48 -13 -6 -5 489 -1995 498 -2004 3 -3
55 29 117 71 203 138 530 279 800 345 117 29 105 36 -26 15 -224 -36 -499
-126 -719 -235 -54 -27 -101 -47 -104 -45 -5 6 -450 1725 -451 1742 0 7 12 15
28 19 52 11 51 9 38 61 -12 47 -13 48 -52 49 -21 1 -58 -1 -81 -5z"/>
<path d="M4326 3339 c-3 -8 -9 -31 -15 -52 -10 -41 -11 -40 42 -51 15 -4 27
-12 27 -19 -1 -20 -446 -1736 -452 -1742 -3 -4 -59 20 -124 53 -207 103 -456
186 -677 223 -148 25 -172 20 -47 -11 268 -65 590 -204 801 -346 61 -41 113
-73 116 -70 5 4 502 1983 503 1997 0 11 -25 17 -99 25 -56 5 -72 4 -75 -7z"/>
</g>
</svg>
